<svg width="20" height="20" viewBox="0 0 20 20" fill="none" xmlns="http://www.w3.org/2000/svg">
<path d="M15.8334 7.50015H13.6834L16.4251 4.75849C16.582 4.60157 16.6702 4.38874 16.6702 4.16682C16.6702 3.9449 16.582 3.73207 16.4251 3.57515C16.2682 3.41823 16.0554 3.33008 15.8334 3.33008C15.6115 3.33008 15.3987 3.41823 15.2418 3.57515L12.5001 6.30849V4.16682C12.5001 3.94581 12.4123 3.73385 12.256 3.57757C12.0998 3.42129 11.8878 3.33349 11.6668 3.33349C11.4458 3.33349 11.2338 3.42129 11.0775 3.57757C10.9212 3.73385 10.8334 3.94581 10.8334 4.16682V8.33349C10.8334 8.5545 10.9212 8.76646 11.0775 8.92274C11.2338 9.07902 11.4458 9.16682 11.6668 9.16682H15.8334C16.0545 9.16682 16.2664 9.07902 16.4227 8.92274C16.579 8.76646 16.6668 8.5545 16.6668 8.33349C16.6668 8.11247 16.579 7.90051 16.4227 7.74423C16.2664 7.58795 16.0545 7.50015 15.8334 7.50015ZM8.33345 10.8335H4.16678C3.94576 10.8335 3.7338 10.9213 3.57752 11.0776C3.42124 11.2338 3.33345 11.4458 3.33345 11.6668C3.33345 11.8878 3.42124 12.0998 3.57752 12.2561C3.7338 12.4124 3.94576 12.5002 4.16678 12.5002H6.30845L3.57511 15.2418C3.497 15.3193 3.43501 15.4115 3.3927 15.513C3.3504 15.6146 3.32861 15.7235 3.32861 15.8335C3.32861 15.9435 3.3504 16.0524 3.3927 16.154C3.43501 16.2555 3.497 16.3477 3.57511 16.4252C3.65258 16.5033 3.74475 16.5653 3.8463 16.6076C3.94785 16.6499 4.05677 16.6717 4.16678 16.6717C4.27679 16.6717 4.38571 16.6499 4.48726 16.6076C4.58881 16.5653 4.68098 16.5033 4.75845 16.4252L7.50011 13.6835V15.8335C7.50011 16.0545 7.58791 16.2665 7.74419 16.4227C7.90047 16.579 8.11243 16.6668 8.33345 16.6668C8.55446 16.6668 8.76642 16.579 8.9227 16.4227C9.07898 16.2665 9.16678 16.0545 9.16678 15.8335V11.6668C9.16678 11.4458 9.07898 11.2338 8.9227 11.0776C8.76642 10.9213 8.55446 10.8335 8.33345 10.8335Z" fill="#2A538F"/>
</svg>
