<svg width="25" height="25" viewBox="0 0 25 25" fill="none" xmlns="http://www.w3.org/2000/svg">
<path fill-rule="evenodd" clip-rule="evenodd" d="M16.6673 9.37565C16.6673 10.4807 16.2283 11.5405 15.4469 12.3219C14.6655 13.1033 13.6057 13.5423 12.5007 13.5423C11.3956 13.5423 10.3358 13.1033 9.55437 12.3219C8.77297 11.5405 8.33398 10.4807 8.33398 9.37565C8.33398 8.27058 8.77297 7.21077 9.55437 6.42937C10.3358 5.64797 11.3956 5.20898 12.5007 5.20898C13.6057 5.20898 14.6655 5.64797 15.4469 6.42937C16.2283 7.21077 16.6673 8.27058 16.6673 9.37565ZM14.584 9.37565C14.584 9.92819 14.3645 10.4581 13.9738 10.8488C13.5831 11.2395 13.0532 11.459 12.5007 11.459C11.9481 11.459 11.4182 11.2395 11.0275 10.8488C10.6368 10.4581 10.4173 9.92819 10.4173 9.37565C10.4173 8.82312 10.6368 8.29321 11.0275 7.90251C11.4182 7.51181 11.9481 7.29232 12.5007 7.29232C13.0532 7.29232 13.5831 7.51181 13.9738 7.90251C14.3645 8.29321 14.584 8.82312 14.584 9.37565Z" fill="#222222"/>
<path fill-rule="evenodd" clip-rule="evenodd" d="M12.5003 1.04199C6.1722 1.04199 1.04199 6.1722 1.04199 12.5003C1.04199 18.8284 6.1722 23.9587 12.5003 23.9587C18.8284 23.9587 23.9587 18.8284 23.9587 12.5003C23.9587 6.1722 18.8284 1.04199 12.5003 1.04199ZM3.12533 12.5003C3.12533 14.6774 3.86803 16.6816 5.11282 18.2732C5.98702 17.1252 7.1148 16.1949 8.40807 15.5548C9.70133 14.9148 11.1251 14.5824 12.568 14.5837C13.9923 14.5823 15.3982 14.9061 16.6784 15.5303C17.9586 16.1545 19.0795 17.0627 19.9555 18.1857C20.8581 17.002 21.4658 15.6203 21.7283 14.1551C21.9909 12.6899 21.9008 11.1832 21.4654 9.75968C21.0301 8.33619 20.262 7.03683 19.2248 5.96911C18.1876 4.90139 16.911 4.09601 15.5007 3.61961C14.0904 3.1432 12.587 3.00946 11.1148 3.22946C9.64253 3.44947 8.24386 4.01688 7.03446 4.88476C5.82506 5.75263 4.83971 6.89602 4.15994 8.22032C3.48017 9.54462 3.12551 11.0117 3.12533 12.5003ZM12.5003 21.8753C10.3482 21.8786 8.26102 21.1382 6.59199 19.7795C7.26379 18.8178 8.15797 18.0325 9.19844 17.4906C10.2389 16.9487 11.3949 16.6662 12.568 16.667C13.7265 16.6661 14.8685 16.9415 15.8992 17.4706C16.9299 17.9996 17.8195 18.7668 18.4941 19.7087C16.8121 21.1115 14.6905 21.8784 12.5003 21.8753Z" fill="#222222"/>
</svg>
