<svg width="25" height="25" viewBox="0 0 25 25" fill="none" xmlns="http://www.w3.org/2000/svg">
<path d="M20.3125 3.125H4.6875C3.82456 3.125 3.125 3.82456 3.125 4.6875V20.3125C3.125 21.1754 3.82456 21.875 4.6875 21.875H20.3125C21.1754 21.875 21.875 21.1754 21.875 20.3125V4.6875C21.875 3.82456 21.1754 3.125 20.3125 3.125Z" stroke="white" stroke-width="2.08333" stroke-linecap="round" stroke-linejoin="round"/>
<path d="M16.1 12.746V16.166C15.24 16.786 14.24 17.096 13.1 17.096C12.4 17.096 11.766 16.988 11.198 16.772C10.634 16.552 10.152 16.248 9.752 15.86C9.352 15.468 9.044 15.002 8.828 14.462C8.612 13.922 8.504 13.328 8.504 12.68C8.504 12.028 8.608 11.432 8.816 10.892C9.024 10.348 9.322 9.882 9.71 9.494C10.098 9.102 10.566 8.8 11.114 8.588C11.662 8.372 12.278 8.264 12.962 8.264C13.31 8.264 13.632 8.292 13.928 8.348C14.228 8.4 14.506 8.474 14.762 8.57C15.018 8.666 15.254 8.782 15.47 8.918C15.686 9.054 15.884 9.206 16.064 9.374L15.662 10.016C15.598 10.116 15.516 10.178 15.416 10.202C15.316 10.226 15.208 10.202 15.092 10.13C14.976 10.062 14.852 9.99 14.72 9.914C14.592 9.838 14.444 9.768 14.276 9.704C14.108 9.636 13.914 9.582 13.694 9.542C13.474 9.498 13.214 9.476 12.914 9.476C12.458 9.476 12.046 9.552 11.678 9.704C11.314 9.852 11.002 10.066 10.742 10.346C10.482 10.622 10.282 10.958 10.142 11.354C10.002 11.75 9.932 12.192 9.932 12.68C9.932 13.196 10.006 13.658 10.154 14.066C10.302 14.47 10.512 14.814 10.784 15.098C11.056 15.378 11.384 15.592 11.768 15.74C12.156 15.888 12.588 15.962 13.064 15.962C13.42 15.962 13.736 15.924 14.012 15.848C14.292 15.772 14.566 15.666 14.834 15.53V13.814H13.628C13.536 13.814 13.464 13.79 13.412 13.742C13.36 13.69 13.334 13.624 13.334 13.544V12.746H16.1Z" fill="white"/>
</svg>
