<svg width="25" height="25" viewBox="0 0 25 25" fill="none" xmlns="http://www.w3.org/2000/svg">
<path d="M18.3856 6.61491C17.6146 5.83871 16.6977 5.22279 15.6876 4.80265C14.6774 4.38251 13.5942 4.16648 12.5002 4.16699C7.896 4.16699 4.17725 7.89616 4.17725 12.5003C4.17725 17.1045 7.896 20.8337 12.5002 20.8337C16.3856 20.8337 19.6252 18.1774 20.5522 14.5837H18.3856C17.9565 15.8019 17.1599 16.857 16.1057 17.6033C15.0516 18.3496 13.7918 18.7504 12.5002 18.7503C9.05225 18.7503 6.25016 15.9482 6.25016 12.5003C6.25016 9.05241 9.05225 6.25033 12.5002 6.25033C14.2293 6.25033 15.771 6.96908 16.896 8.10449L13.5418 11.4587H20.8335V4.16699L18.3856 6.61491Z" fill="#6849FF"/>
</svg>
