<svg width="25" height="25" viewBox="0 0 25 25" fill="none" xmlns="http://www.w3.org/2000/svg">
<path d="M20.3125 3.125H4.6875C3.82456 3.125 3.125 3.82456 3.125 4.6875V20.3125C3.125 21.1754 3.82456 21.875 4.6875 21.875H20.3125C21.1754 21.875 21.875 21.1754 21.875 20.3125V4.6875C21.875 3.82456 21.1754 3.125 20.3125 3.125Z" stroke="white" stroke-width="2.08333" stroke-linecap="round" stroke-linejoin="round"/>
<path d="M10.9372 8.85547H6.77051V16.1471H10.6768M6.77051 12.5013H10.6768M13.5413 9.89714V16.1471V12.7617C13.5413 12.1401 13.7883 11.544 14.2278 11.1044C14.6673 10.6649 15.2635 10.418 15.8851 10.418C16.5067 10.418 17.1028 10.6649 17.5424 11.1044C17.9819 11.544 18.2288 12.1401 18.2288 12.7617V16.1471" stroke="white" stroke-width="2.08333" stroke-linecap="round" stroke-linejoin="round"/>
</svg>
