<svg width="25" height="25" viewBox="0 0 25 25" fill="none" xmlns="http://www.w3.org/2000/svg">
<path d="M9.63542 22.9173L9.21875 19.584C8.99306 19.4972 8.78021 19.393 8.58021 19.2715C8.38021 19.15 8.18507 19.0197 7.99479 18.8809L4.89583 20.1829L2.03125 15.235L4.71354 13.2038C4.69618 13.0822 4.6875 12.9649 4.6875 12.8517V12.1496C4.6875 12.0364 4.69618 11.9191 4.71354 11.7975L2.03125 9.76628L4.89583 4.81836L7.99479 6.12044C8.18576 5.98155 8.38542 5.85135 8.59375 5.72982C8.80208 5.60829 9.01042 5.50412 9.21875 5.41732L9.63542 2.08398H15.3646L15.7812 5.41732C16.0069 5.50412 16.2198 5.60829 16.4198 5.72982C16.6198 5.85135 16.8149 5.98155 17.0052 6.12044L20.1042 4.81836L22.9687 9.76628L20.2865 11.7975C20.3038 11.9191 20.3125 12.0364 20.3125 12.1496V12.8517C20.3125 12.9649 20.2951 13.0822 20.2604 13.2038L22.9427 15.235L20.0781 20.1829L17.0052 18.8809C16.8142 19.0197 16.6146 19.15 16.4062 19.2715C16.1979 19.393 15.9896 19.4972 15.7812 19.584L15.3646 22.9173H9.63542ZM11.4583 20.834H13.5156L13.8802 18.0736C14.4184 17.9347 14.9177 17.7305 15.3781 17.4611C15.8385 17.1916 16.2594 16.8663 16.6406 16.485L19.2187 17.5527L20.2344 15.7819L17.9948 14.0892C18.0816 13.8461 18.1424 13.5902 18.1771 13.3215C18.2118 13.0527 18.2292 12.7791 18.2292 12.5007C18.2292 12.2229 18.2118 11.9496 18.1771 11.6809C18.1424 11.4121 18.0816 11.1559 17.9948 10.9121L20.2344 9.2194L19.2187 7.44857L16.6406 8.54232C16.2587 8.14301 15.8378 7.80898 15.3781 7.54023C14.9184 7.27148 14.4191 7.06732 13.8802 6.92773L13.5417 4.16732H11.4844L11.1198 6.92773C10.5816 7.06662 10.0826 7.27079 9.62292 7.54023C9.16319 7.80968 8.74201 8.13503 8.35937 8.51628L5.78125 7.44857L4.76562 9.2194L7.00521 10.8861C6.9184 11.1465 6.85764 11.4069 6.82292 11.6673C6.78819 11.9277 6.77083 12.2055 6.77083 12.5007C6.77083 12.7784 6.78819 13.0475 6.82292 13.3079C6.85764 13.5684 6.9184 13.8288 7.00521 14.0892L4.76562 15.7819L5.78125 17.5527L8.35937 16.459C8.74132 16.8583 9.1625 17.1927 9.62292 17.4621C10.0833 17.7316 10.5823 17.9354 11.1198 18.0736L11.4583 20.834ZM12.5521 16.1465C13.559 16.1465 14.4184 15.7906 15.1302 15.0788C15.842 14.367 16.1979 13.5076 16.1979 12.5007C16.1979 11.4937 15.842 10.6343 15.1302 9.92253C14.4184 9.21072 13.559 8.85482 12.5521 8.85482C11.5278 8.85482 10.6639 9.21072 9.96042 9.92253C9.25694 10.6343 8.90556 11.4937 8.90625 12.5007C8.90625 13.5076 9.25764 14.367 9.96042 15.0788C10.6632 15.7906 11.5271 16.1465 12.5521 16.1465Z" fill="white"/>
</svg>
