<svg width="20" height="20" viewBox="0 0 20 20" fill="none" xmlns="http://www.w3.org/2000/svg">
<g clip-path="url(#clip0_781_5834)">
<path d="M9.99996 3.33301C10.7125 3.33301 11.4433 3.35134 12.1516 3.38134L12.9883 3.42134L13.7891 3.46884L14.5391 3.51967L15.2241 3.57301C15.9675 3.62991 16.667 3.94713 17.1996 4.46887C17.7321 4.99062 18.0636 5.68346 18.1358 6.42551L18.1691 6.77967L18.2316 7.53801C18.29 8.32384 18.3333 9.18051 18.3333 9.99967C18.3333 10.8188 18.29 11.6755 18.2316 12.4613L18.1691 13.2197C18.1583 13.3413 18.1475 13.4588 18.1358 13.5738C18.0636 14.316 17.732 15.009 17.1992 15.5307C16.6665 16.0525 15.9668 16.3696 15.2233 16.4263L14.54 16.4788L13.79 16.5305L12.9883 16.578L12.1516 16.618C11.4348 16.6492 10.7174 16.6653 9.99996 16.6663C9.28248 16.6653 8.5651 16.6492 7.84829 16.618L7.01163 16.578L6.21079 16.5305L5.46079 16.4788L4.77579 16.4263C4.03242 16.3694 3.33292 16.0522 2.80035 15.5305C2.26779 15.0087 1.93627 14.3159 1.86413 13.5738L1.83079 13.2197L1.76829 12.4613C1.70457 11.6423 1.67066 10.8212 1.66663 9.99967C1.66663 9.18051 1.70996 8.32384 1.76829 7.53801L1.83079 6.77967C1.84163 6.65801 1.85246 6.54051 1.86413 6.42551C1.93624 5.68359 2.26764 4.99085 2.80004 4.46913C3.33243 3.9474 4.03173 3.63009 4.77496 3.57301L5.45913 3.51967L6.20913 3.46884L7.01079 3.42134L7.84746 3.38134C8.56454 3.3502 9.2822 3.33409 9.99996 3.33301ZM9.99996 4.99967C9.31246 4.99967 8.60496 5.01801 7.91663 5.04634L7.10163 5.08551L6.31913 5.13134L5.58413 5.18134L4.91079 5.23384C4.5569 5.25895 4.22333 5.40855 3.9692 5.65611C3.71508 5.90368 3.55681 6.23323 3.52246 6.58634C3.42496 7.59384 3.33329 8.84801 3.33329 9.99967C3.33329 11.1513 3.42496 12.4055 3.52246 13.413C3.59329 14.1397 4.16996 14.7047 4.91079 14.7655L5.58413 14.8172L6.31913 14.8672L7.10163 14.9138L7.91663 14.953C8.60496 14.9813 9.31246 14.9997 9.99996 14.9997C10.6875 14.9997 11.395 14.9813 12.0833 14.953L12.8983 14.9138L13.6808 14.868L14.4158 14.818L15.0891 14.7655C15.443 14.7404 15.7766 14.5908 16.0307 14.3432C16.2848 14.0957 16.4431 13.7661 16.4775 13.413C16.575 12.4055 16.6666 11.1513 16.6666 9.99967C16.6666 8.84801 16.575 7.59384 16.4775 6.58634C16.4431 6.23323 16.2848 5.90368 16.0307 5.65611C15.7766 5.40855 15.443 5.25895 15.0891 5.23384L14.4158 5.18217L13.6808 5.13217L12.8983 5.08551L12.0833 5.04634C11.3892 5.01648 10.6947 5.00092 9.99996 4.99967ZM8.33329 7.97884C8.33324 7.89739 8.35308 7.81717 8.3911 7.74514C8.42911 7.67311 8.48415 7.61145 8.55142 7.56554C8.61869 7.51962 8.69616 7.49083 8.77709 7.48168C8.85802 7.47253 8.93996 7.48328 9.01579 7.51301L9.08329 7.54634L12.5833 9.56634C12.653 9.60655 12.712 9.663 12.7552 9.73087C12.7984 9.79875 12.8246 9.87605 12.8315 9.95621C12.8385 10.0364 12.826 10.117 12.7951 10.1913C12.7642 10.2656 12.7159 10.3314 12.6541 10.383L12.5833 10.433L9.08329 12.4538C9.01276 12.4947 8.93331 12.5177 8.85187 12.5208C8.77043 12.5239 8.68946 12.5071 8.61601 12.4717C8.54256 12.4364 8.47886 12.3837 8.43046 12.3181C8.38205 12.2525 8.35041 12.1761 8.33829 12.0955L8.33329 12.0205V7.97884Z" fill="black" fill-opacity="0.5"/>
</g>
<defs>
<clipPath id="clip0_781_5834">
<rect width="20" height="20" fill="white"/>
</clipPath>
</defs>
</svg>
