<svg width="20" height="20" viewBox="0 0 20 20" fill="none" xmlns="http://www.w3.org/2000/svg">
<path d="M15.8752 4.09204C15.1112 3.32031 14.2011 2.70843 13.1982 2.29208C12.1952 1.87574 11.1194 1.66326 10.0335 1.66704C5.4835 1.66704 1.77516 5.37537 1.77516 9.92537C1.77516 11.3837 2.1585 12.8004 2.87516 14.0504L1.7085 18.3337L6.0835 17.1837C7.29183 17.842 8.65016 18.192 10.0335 18.192C14.5835 18.192 18.2918 14.4837 18.2918 9.93371C18.2918 7.72537 17.4335 5.65037 15.8752 4.09204ZM10.0335 16.792C8.80016 16.792 7.59183 16.4587 6.5335 15.8337L6.2835 15.6837L3.6835 16.367L4.37516 13.8337L4.2085 13.5754C3.52328 12.4812 3.15945 11.2164 3.1585 9.92537C3.1585 6.14204 6.24183 3.05871 10.0252 3.05871C11.8585 3.05871 13.5835 3.77538 14.8752 5.07538C15.5147 5.71201 16.0216 6.46926 16.3663 7.30323C16.7111 8.1372 16.8869 9.0313 16.8835 9.93371C16.9002 13.717 13.8168 16.792 10.0335 16.792ZM13.8002 11.6587C13.5918 11.5587 12.5752 11.0587 12.3918 10.9837C12.2002 10.917 12.0668 10.8837 11.9252 11.0837C11.7835 11.292 11.3918 11.7587 11.2752 11.892C11.1585 12.0337 11.0335 12.0504 10.8252 11.942C10.6168 11.842 9.95016 11.617 9.16683 10.917C8.55016 10.367 8.14183 9.69204 8.01683 9.48371C7.90016 9.27537 8.00016 9.16704 8.1085 9.05871C8.20016 8.96704 8.31683 8.81704 8.41683 8.70037C8.51683 8.58371 8.5585 8.49204 8.62516 8.35871C8.69183 8.21704 8.6585 8.10038 8.6085 8.00038C8.5585 7.90038 8.14183 6.88371 7.97516 6.46704C7.8085 6.06704 7.6335 6.11704 7.5085 6.10871H7.1085C6.96683 6.10871 6.75016 6.15871 6.5585 6.36704C6.37516 6.57538 5.84183 7.07538 5.84183 8.09204C5.84183 9.10871 6.5835 10.092 6.6835 10.2254C6.7835 10.367 8.14183 12.4504 10.2085 13.342C10.7002 13.5587 11.0835 13.6837 11.3835 13.7754C11.8752 13.9337 12.3252 13.9087 12.6835 13.8587C13.0835 13.8004 13.9085 13.3587 14.0752 12.8754C14.2502 12.392 14.2502 11.9837 14.1918 11.892C14.1335 11.8004 14.0085 11.7587 13.8002 11.6587Z" fill="black" fill-opacity="0.5"/>
</svg>
