<svg width="20" height="20" viewBox="0 0 20 20" fill="none" xmlns="http://www.w3.org/2000/svg">
<g clip-path="url(#clip0_784_6270)">
<path d="M19.2858 9.99958C19.2858 12.4623 18.3075 14.8242 16.5661 16.5656C14.8247 18.307 12.4628 19.2853 10.0001 19.2853C7.53735 19.2853 5.17549 18.307 3.43408 16.5656C1.69267 14.8242 0.714355 12.4623 0.714355 9.99958M19.2858 9.99958C19.2858 7.53686 18.3075 5.175 16.5661 3.43359C14.8247 1.69218 12.4628 0.713867 10.0001 0.713867C7.53735 0.713867 5.17549 1.69218 3.43408 3.43359C1.69267 5.175 0.714355 7.53686 0.714355 9.99958M19.2858 9.99958H0.714355" stroke="black" stroke-opacity="0.5" stroke-width="1.42857" stroke-linecap="round" stroke-linejoin="round"/>
<path d="M13.5716 9.99958C13.3961 13.3953 12.1454 16.6472 10.0001 19.2853C7.85488 16.6472 6.60414 13.3953 6.42871 9.99958C6.60414 6.60388 7.85488 3.35194 10.0001 0.713867C12.1454 3.35194 13.3961 6.60388 13.5716 9.99958Z" stroke="black" stroke-opacity="0.5" stroke-width="1.42857" stroke-linecap="round" stroke-linejoin="round"/>
</g>
<defs>
<clipPath id="clip0_784_6270">
<rect width="20" height="20" fill="white"/>
</clipPath>
</defs>
</svg>
