<svg width="18" height="23" viewBox="0 0 18 23" fill="none" xmlns="http://www.w3.org/2000/svg">
<path d="M3.36214 22.7368C2.42786 22.7368 1.63414 22.416 0.981 21.7743C0.327 21.1318 0 20.3516 0 19.4337V3.78947C0 2.74695 0.372 1.85432 1.116 1.11158C1.86086 0.370527 2.77457 0 3.85714 0H18V17.3937C17.4103 17.3937 16.9166 17.5937 16.5189 17.9937C16.122 18.3945 15.9236 18.8745 15.9236 19.4337C15.9236 20.0131 16.122 20.4981 16.5189 20.8888C16.9166 21.2787 17.4103 21.4737 18 21.4737V22.7368H3.36214ZM3.36214 21.4737H15.4016C15.1573 21.1958 14.9687 20.8876 14.8359 20.5491C14.7039 20.2122 14.6379 19.8404 14.6379 19.4337C14.6379 19.048 14.703 18.6808 14.8333 18.3322C14.9627 17.9844 15.1521 17.6712 15.4016 17.3924H3.36214C2.77243 17.3924 2.27871 17.5928 1.881 17.9937C1.48414 18.3945 1.28571 18.8745 1.28571 19.4337C1.28571 20.0131 1.48414 20.4981 1.881 20.8888C2.27871 21.2787 2.77243 21.4737 3.36214 21.4737ZM1.28571 16.8796C1.56857 16.6354 1.88229 16.4493 2.22686 16.3213C2.56971 16.1933 2.94814 16.1293 3.36214 16.1293H16.7143V1.26316H3.85714C3.13543 1.26316 2.52643 1.512 2.03014 2.00968C1.53386 2.50821 1.28571 3.10147 1.28571 3.78947V16.8796ZM5.20971 12.3398H6.26529L7.02 10.3415H10.9479L11.7026 12.3398H12.7337L9.57343 4.08126H8.38671L5.20971 12.3398ZM7.36971 9.38653L8.98457 5.13979H9.00771L10.5969 9.38653H7.36971Z" fill="#747280"/>
</svg>
