<svg width="15" height="13" viewBox="0 0 15 13" fill="none" xmlns="http://www.w3.org/2000/svg">
<path d="M12.6562 0C13.2779 0 13.874 0.250282 14.3135 0.695787C14.7531 1.14129 15 1.74553 15 2.37557V9.97738C15 10.6074 14.7531 11.2116 14.3135 11.6572C13.874 12.1027 13.2779 12.3529 12.6562 12.3529H2.34375C1.72215 12.3529 1.12601 12.1027 0.686468 11.6572C0.24693 11.2116 0 10.6074 0 9.97738V2.37557C0 1.74553 0.24693 1.14129 0.686468 0.695787C1.12601 0.250282 1.72215 0 2.34375 0H12.6562ZM14.0625 3.76385L7.73812 7.53624C7.67833 7.57183 7.6115 7.59352 7.54244 7.59976C7.47338 7.60601 7.40381 7.59665 7.33875 7.57235L7.26188 7.53624L0.9375 3.76575V9.97738C0.9375 10.3554 1.08566 10.7179 1.34938 10.9852C1.6131 11.2525 1.97079 11.4027 2.34375 11.4027H12.6562C13.0292 11.4027 13.3869 11.2525 13.6506 10.9852C13.9143 10.7179 14.0625 10.3554 14.0625 9.97738V3.76385ZM12.6562 0.950226H2.34375C1.97079 0.950226 1.6131 1.1004 1.34938 1.3677C1.08566 1.635 0.9375 1.99754 0.9375 2.37557V2.66253L7.5 6.57557L14.0625 2.66063V2.37557C14.0625 1.99754 13.9143 1.635 13.6506 1.3677C13.3869 1.1004 13.0292 0.950226 12.6562 0.950226Z" fill="#747280"/>
</svg>
