<svg width="20" height="20" viewBox="0 0 20 20" fill="none" xmlns="http://www.w3.org/2000/svg">
<path d="M10.0008 7.50033C9.33777 7.50033 8.70189 7.76372 8.23305 8.23256C7.76421 8.7014 7.50081 9.33728 7.50081 10.0003C7.50081 10.6634 7.76421 11.2993 8.23305 11.7681C8.70189 12.2369 9.33777 12.5003 10.0008 12.5003C10.6639 12.5003 11.2997 12.2369 11.7686 11.7681C12.2374 11.2993 12.5008 10.6634 12.5008 10.0003C12.5008 9.33728 12.2374 8.7014 11.7686 8.23256C11.2997 7.76372 10.6639 7.50033 10.0008 7.50033ZM10.0008 5.83366C11.1059 5.83366 12.1657 6.27265 12.9471 7.05405C13.7285 7.83545 14.1675 8.89526 14.1675 10.0003C14.1675 11.1054 13.7285 12.1652 12.9471 12.9466C12.1657 13.728 11.1059 14.167 10.0008 14.167C8.89574 14.167 7.83594 13.728 7.05454 12.9466C6.27313 12.1652 5.83415 11.1054 5.83415 10.0003C5.83415 8.89526 6.27313 7.83545 7.05454 7.05405C7.83594 6.27265 8.89574 5.83366 10.0008 5.83366ZM15.4175 5.62533C15.4175 5.90159 15.3077 6.16654 15.1124 6.3619C14.917 6.55725 14.6521 6.66699 14.3758 6.66699C14.0995 6.66699 13.8346 6.55725 13.6392 6.3619C13.4439 6.16654 13.3341 5.90159 13.3341 5.62533C13.3341 5.34906 13.4439 5.08411 13.6392 4.88876C13.8346 4.69341 14.0995 4.58366 14.3758 4.58366C14.6521 4.58366 14.917 4.69341 15.1124 4.88876C15.3077 5.08411 15.4175 5.34906 15.4175 5.62533ZM10.0008 3.33366C7.93915 3.33366 7.60248 3.33949 6.64331 3.38199C5.98998 3.41283 5.55165 3.50033 5.14498 3.65866C4.80466 3.78361 4.49699 3.98388 4.24498 4.24449C3.98415 4.49649 3.78361 4.80415 3.65831 5.14449C3.49998 5.55283 3.41248 5.99033 3.38248 6.64283C3.33915 7.56283 3.33331 7.88449 3.33331 10.0003C3.33331 12.0628 3.33915 12.3987 3.38165 13.3578C3.41248 14.0103 3.49998 14.4495 3.65748 14.8553C3.79915 15.2178 3.96581 15.4787 4.24248 15.7553C4.52331 16.0353 4.78415 16.2028 5.14248 16.3412C5.55415 16.5003 5.99248 16.5887 6.64248 16.6187C7.56248 16.662 7.88415 16.667 9.99998 16.667C12.0625 16.667 12.3983 16.6612 13.3575 16.6187C14.0091 16.5878 14.4475 16.5003 14.855 16.3428C15.195 16.2173 15.5025 16.0171 15.755 15.757C16.0358 15.477 16.2033 15.2162 16.3416 14.857C16.5 14.447 16.5883 14.0087 16.6183 13.357C16.6616 12.4378 16.6666 12.1153 16.6666 10.0003C16.6666 7.93866 16.6608 7.60199 16.6183 6.64283C16.5875 5.99116 16.4991 5.55116 16.3416 5.14449C16.216 4.80451 16.0159 4.49698 15.7558 4.24449C15.5039 3.98353 15.1962 3.78296 14.8558 3.65783C14.4475 3.49949 14.0091 3.41199 13.3575 3.38199C12.4383 3.33866 12.1175 3.33366 10.0008 3.33366ZM10.0008 1.66699C12.265 1.66699 12.5475 1.67533 13.4366 1.71699C14.3233 1.75866 14.9283 1.89783 15.4591 2.10449C16.0091 2.31616 16.4725 2.60283 16.9358 3.06533C17.3596 3.48191 17.6874 3.98582 17.8966 4.54199C18.1025 5.07283 18.2425 5.67782 18.2841 6.56533C18.3233 7.45366 18.3341 7.73616 18.3341 10.0003C18.3341 12.2645 18.3258 12.547 18.2841 13.4353C18.2425 14.3228 18.1025 14.927 17.8966 15.4587C17.688 16.0151 17.3601 16.5192 16.9358 16.9353C16.5191 17.3589 16.0152 17.6868 15.4591 17.8962C14.9283 18.102 14.3233 18.242 13.4366 18.2837C12.5475 18.3228 12.265 18.3337 10.0008 18.3337C7.73665 18.3337 7.45415 18.3253 6.56498 18.2837C5.67831 18.242 5.07415 18.102 4.54248 17.8962C3.98609 17.6874 3.48209 17.3594 3.06581 16.9353C2.64201 16.5188 2.31411 16.0149 2.10498 15.4587C1.89831 14.9278 1.75915 14.3228 1.71748 13.4353C1.67748 12.547 1.66748 12.2645 1.66748 10.0003C1.66748 7.73616 1.67581 7.45366 1.71748 6.56533C1.75915 5.67699 1.89831 5.07366 2.10498 4.54199C2.31351 3.98547 2.64148 3.48143 3.06581 3.06533C3.48221 2.64135 3.98617 2.31343 4.54248 2.10449C5.07331 1.89783 5.67748 1.75866 6.56498 1.71699C7.45415 1.67783 7.73665 1.66699 10.0008 1.66699Z" fill="black" fill-opacity="0.5"/>
</svg>
