<svg width="20" height="20" viewBox="0 0 20 20" fill="none" xmlns="http://www.w3.org/2000/svg">
<g clip-path="url(#clip0_781_5826)">
<path fill-rule="evenodd" clip-rule="evenodd" d="M3.33329 10.0003C3.33341 8.71737 3.70372 7.4617 4.39978 6.38398C5.09584 5.30626 6.08809 4.45228 7.25747 3.9245C8.42684 3.39673 9.72366 3.21758 10.9923 3.40855C12.261 3.59953 13.4476 4.15251 14.4098 5.00115C15.372 5.84979 16.0688 6.95804 16.4168 8.19292C16.7647 9.42779 16.749 10.7368 16.3714 11.963C15.9938 13.1891 15.2704 14.2803 14.2881 15.1055C13.3058 15.9307 12.1062 16.455 10.8333 16.6153V11.667H12.5C12.721 11.667 12.9329 11.5792 13.0892 11.4229C13.2455 11.2666 13.3333 11.0547 13.3333 10.8337C13.3333 10.6126 13.2455 10.4007 13.0892 10.2444C12.9329 10.0881 12.721 10.0003 12.5 10.0003H10.8333V8.33366C10.8333 8.11265 10.9211 7.90068 11.0774 7.7444C11.2337 7.58812 11.4456 7.50033 11.6666 7.50033H12.0833C12.3043 7.50033 12.5163 7.41253 12.6725 7.25625C12.8288 7.09997 12.9166 6.88801 12.9166 6.66699C12.9166 6.44598 12.8288 6.23402 12.6725 6.07774C12.5163 5.92146 12.3043 5.83366 12.0833 5.83366H11.6666C11.0036 5.83366 10.3677 6.09705 9.89886 6.56589C9.43002 7.03473 9.16663 7.67062 9.16663 8.33366V10.0003H7.49996C7.27895 10.0003 7.06698 10.0881 6.9107 10.2444C6.75442 10.4007 6.66663 10.6126 6.66663 10.8337C6.66663 11.0547 6.75442 11.2666 6.9107 11.4229C7.06698 11.5792 7.27895 11.667 7.49996 11.667H9.16663V16.6153C7.55554 16.4122 6.07398 15.628 4.99996 14.4101C3.92595 13.1922 3.33332 11.6242 3.33329 10.0003ZM9.99996 18.3337C14.6025 18.3337 18.3333 14.6028 18.3333 10.0003C18.3333 5.39783 14.6025 1.66699 9.99996 1.66699C5.39746 1.66699 1.66663 5.39783 1.66663 10.0003C1.66663 14.6028 5.39746 18.3337 9.99996 18.3337Z" fill="black" fill-opacity="0.5"/>
</g>
<defs>
<clipPath id="clip0_781_5826">
<rect width="20" height="20" fill="white"/>
</clipPath>
</defs>
</svg>
