<svg width="25" height="25" viewBox="0 0 25 25" fill="none" xmlns="http://www.w3.org/2000/svg">
<path d="M20.3125 1.95312H7.03125C6.09885 1.95313 5.20464 2.32352 4.54533 2.98283C3.88602 3.64214 3.51563 4.53635 3.51562 5.46875V21.875C3.51562 22.1858 3.63909 22.4839 3.85886 22.7036C4.07863 22.9234 4.3767 23.0469 4.6875 23.0469H18.75C19.0608 23.0469 19.3589 22.9234 19.5786 22.7036C19.7984 22.4839 19.9219 22.1858 19.9219 21.875C19.9219 21.5642 19.7984 21.2661 19.5786 21.0464C19.3589 20.8266 19.0608 20.7031 18.75 20.7031H5.85938V20.3125C5.85938 20.0017 5.98284 19.7036 6.20261 19.4839C6.42238 19.2641 6.72045 19.1406 7.03125 19.1406H20.3125C20.6233 19.1406 20.9214 19.0172 21.1411 18.7974C21.3609 18.5776 21.4844 18.2796 21.4844 17.9688V3.125C21.4844 2.8142 21.3609 2.51613 21.1411 2.29636C20.9214 2.07659 20.6233 1.95312 20.3125 1.95312ZM19.1406 16.7969H7.03125C6.63197 16.7961 6.23554 16.8642 5.85938 16.998V5.46875C5.85938 5.15795 5.98284 4.85988 6.20261 4.64011C6.42238 4.42034 6.72045 4.29688 7.03125 4.29688H19.1406V16.7969Z" fill="white"/>
</svg>
