<svg width="20" height="20" viewBox="0 0 20 20" fill="none" xmlns="http://www.w3.org/2000/svg">
<path d="M14.1667 8.33366C13.7083 8.33366 13.3158 8.17394 12.9892 7.85449C12.6625 7.53505 12.4994 7.13922 12.5 6.66699V3.33366C12.5 2.86144 12.6633 2.4656 12.99 2.14616C13.3167 1.82672 13.7089 1.66699 14.1667 1.66699C14.6389 1.66699 15.0347 1.82672 15.3542 2.14616C15.6736 2.4656 15.8333 2.86144 15.8333 3.33366V6.66699C15.8333 7.13922 15.6736 7.53505 15.3542 7.85449C15.0347 8.17394 14.6389 8.33366 14.1667 8.33366ZM4.16667 18.3337C3.70833 18.3337 3.31583 18.1703 2.98917 17.8437C2.6625 17.517 2.49945 17.1248 2.5 16.667V3.33366C2.5 2.87533 2.66333 2.48283 2.99 2.15616C3.31667 1.82949 3.70889 1.66644 4.16667 1.66699H10.8333V3.33366H4.16667V16.667H13.3333V15.0003H15V16.667C15 17.1253 14.8367 17.5178 14.51 17.8445C14.1833 18.1712 13.7911 18.3342 13.3333 18.3337H4.16667ZM5.83334 15.0003V13.3337H11.6667V15.0003H5.83334ZM5.83334 12.5003V10.8337H10V12.5003H5.83334ZM15 13.3337H13.3333V11.167C12.2639 10.9725 11.3714 10.455 10.6558 9.61449C9.94028 8.77394 9.58278 7.79144 9.58334 6.66699H11.25C11.25 7.47255 11.5347 8.16005 12.1042 8.72949C12.6736 9.29894 13.3611 9.58366 14.1667 9.58366C14.9861 9.58366 15.6772 9.29894 16.24 8.72949C16.8028 8.16005 17.0839 7.47255 17.0833 6.66699H18.75C18.75 7.79199 18.3958 8.77477 17.6875 9.61533C16.9792 10.4559 16.0833 10.9731 15 11.167V13.3337Z" fill="black" fill-opacity="0.5"/>
</svg>
