<svg width="20" height="20" viewBox="0 0 20 20" fill="none" xmlns="http://www.w3.org/2000/svg">
<path d="M16.6666 1.66699H3.33329C2.41663 1.66699 1.67496 2.41699 1.67496 3.33366L1.66663 18.3337L4.99996 15.0003H16.6666C17.5833 15.0003 18.3333 14.2503 18.3333 13.3337V3.33366C18.3333 2.41699 17.5833 1.66699 16.6666 1.66699ZM16.6666 13.3337H4.30829L3.81663 13.8253L3.33329 14.3087V3.33366H16.6666V13.3337ZM8.74996 11.667H15V10.0003H10.4166L8.74996 11.667ZM11.9666 6.77533C12.1333 6.60866 12.1333 6.35033 11.9666 6.18366L10.4916 4.70866C10.325 4.54199 10.0666 4.54199 9.89996 4.70866L4.99996 9.60866V11.667H7.05829L11.9666 6.77533Z" fill="black" fill-opacity="0.5"/>
</svg>
