<svg width="20" height="20" viewBox="0 0 20 20" fill="none" xmlns="http://www.w3.org/2000/svg">
<path d="M9.99996 10.833L3.33329 6.66634V14.9997H9.99996C9.99996 15.2913 10.0208 15.5725 10.0625 15.843C10.1041 16.1136 10.1666 16.388 10.25 16.6663H3.33329C2.87496 16.6663 2.48246 16.503 2.15579 16.1763C1.82913 15.8497 1.66607 15.4575 1.66663 14.9997V4.99968C1.66663 4.54134 1.82996 4.14884 2.15663 3.82218C2.48329 3.49551 2.87552 3.33245 3.33329 3.33301H16.6666C17.125 3.33301 17.5175 3.49634 17.8441 3.82301C18.1708 4.14968 18.3338 4.5419 18.3333 4.99968V9.74968C18.0833 9.62468 17.8158 9.52051 17.5308 9.43718C17.2458 9.35384 16.9577 9.29134 16.6666 9.24968V6.66634L9.99996 10.833ZM9.99996 9.16634L16.6666 4.99968H3.33329L9.99996 9.16634ZM15.8333 19.1663C14.6805 19.1663 13.6977 18.76 12.885 17.9472C12.0722 17.1344 11.6661 16.1519 11.6666 14.9997C11.6666 13.8469 12.073 12.8641 12.8858 12.0513C13.6986 11.2386 14.6811 10.8325 15.8333 10.833C16.9861 10.833 17.9688 11.2394 18.7816 12.0522C19.5944 12.865 20.0005 13.8475 20 14.9997C20 16.1525 19.5936 17.1352 18.7808 17.948C17.968 18.7608 16.9855 19.1669 15.8333 19.1663ZM13.3333 15.4163H18.3333V14.583H13.3333V15.4163Z" fill="black" fill-opacity="0.5"/>
</svg>
