<svg width="20" height="20" viewBox="0 0 20 20" fill="none" xmlns="http://www.w3.org/2000/svg">
<path d="M13.125 1.87503C10.3562 1.87503 8.125 4.10628 8.125 6.87503C8.125 7.02191 8.14812 7.22066 8.16437 7.40253L2.8125 12.7538C2.52016 13.0442 2.28816 13.3896 2.12984 13.7701C1.97152 14.1505 1.89001 14.5586 1.89001 14.9707C1.89001 15.3827 1.97152 15.7908 2.12984 16.1712C2.28816 16.5517 2.52016 16.8971 2.8125 17.1875C3.10294 17.4799 3.44833 17.7119 3.8288 17.8702C4.20926 18.0285 4.61728 18.11 5.02937 18.11C5.44146 18.11 5.84948 18.0285 6.22994 17.8702C6.61041 17.7119 6.9558 17.4799 7.24625 17.1875L12.5975 11.8357C12.7787 11.8519 12.9787 11.875 13.125 11.875C15.8937 11.875 18.125 9.64378 18.125 6.87503C18.1283 6.0694 17.9265 5.27619 17.5387 4.57003L17.1481 3.84753L16.5625 4.43378L13.8669 7.10878L12.8906 6.13253L15.5656 3.43753L16.1531 2.85128L15.43 2.46066C14.7236 2.07361 13.9305 1.87212 13.125 1.87503ZM13.125 3.12503C13.4287 3.12503 13.655 3.25628 13.925 3.32066L11.5625 5.68316L11.1125 6.13316L11.5625 6.56253L13.4375 8.43753L13.8675 8.88753L14.3162 8.43753L16.68 6.07503C16.7444 6.34503 16.875 6.57128 16.875 6.87503C16.875 8.98128 15.2312 10.625 13.125 10.625C12.875 10.625 12.675 10.625 12.5187 10.5857L12.1875 10.4882L11.9337 10.7425L6.36687 16.3094C5.59812 17.0782 4.46062 17.0782 3.69187 16.3094L3.67187 16.2894C2.92187 15.5207 2.92812 14.3957 3.69062 13.6332L9.2575 8.06691L9.51187 7.81316L9.41312 7.48191C9.37562 7.32566 9.37437 7.12566 9.37437 6.87566C9.37437 4.76941 11.0181 3.12566 13.1244 3.12566L13.125 3.12503Z" fill="black" fill-opacity="0.5"/>
</svg>
