<svg width="20" height="20" viewBox="0 0 20 20" fill="none" xmlns="http://www.w3.org/2000/svg">
<path d="M10 18.3337L9.79167 15.8337H9.58333C7.61111 15.8337 5.9375 15.1462 4.5625 13.7712C3.1875 12.3962 2.5 10.7225 2.5 8.75033C2.5 6.7781 3.1875 5.10449 4.5625 3.72949C5.9375 2.35449 7.61111 1.66699 9.58333 1.66699C10.5694 1.66699 11.4897 1.85088 12.3442 2.21866C13.1986 2.58644 13.9486 3.09338 14.5942 3.73949C15.2397 4.3856 15.7464 5.1356 16.1142 5.98949C16.4819 6.84338 16.6661 7.76366 16.6667 8.75033C16.6667 9.79199 16.4964 10.792 16.1558 11.7503C15.8153 12.7087 15.35 13.5975 14.76 14.417C14.17 15.2364 13.4686 15.9795 12.6558 16.6462C11.8431 17.3128 10.9578 17.8753 10 18.3337ZM11.6667 15.292C12.6528 14.4587 13.455 13.4828 14.0733 12.3645C14.6917 11.2462 15.0006 10.0414 15 8.75033C15 7.23644 14.4756 5.95533 13.4267 4.90699C12.3778 3.85866 11.0967 3.33421 9.58333 3.33366C8.06944 3.33366 6.78833 3.8581 5.74 4.90699C4.69167 5.95588 4.16722 7.23699 4.16667 8.75033C4.16667 10.2642 4.69111 11.5453 5.74 12.5937C6.78889 13.642 8.07 14.1664 9.58333 14.167H11.6667V15.292ZM9.5625 13.3128C9.79861 13.3128 10 13.2295 10.1667 13.0628C10.3333 12.8962 10.4167 12.6948 10.4167 12.4587C10.4167 12.2225 10.3333 12.0212 10.1667 11.8545C10 11.6878 9.79861 11.6045 9.5625 11.6045C9.32639 11.6045 9.125 11.6878 8.95833 11.8545C8.79167 12.0212 8.70833 12.2225 8.70833 12.4587C8.70833 12.6948 8.79167 12.8962 8.95833 13.0628C9.125 13.2295 9.32639 13.3128 9.5625 13.3128ZM8.95833 10.667H10.2083C10.2083 10.2503 10.25 9.95866 10.3333 9.79199C10.4167 9.62533 10.6806 9.31977 11.125 8.87533C11.375 8.62533 11.5833 8.35449 11.75 8.06283C11.9167 7.77116 12 7.45866 12 7.12533C12 6.41699 11.7603 5.8856 11.2808 5.53116C10.8014 5.17671 10.2356 4.99977 9.58333 5.00033C8.97222 5.00033 8.45833 5.1706 8.04167 5.51116C7.625 5.85171 7.33333 6.26477 7.16667 6.75033L8.33333 7.20866C8.40278 6.97255 8.53472 6.73977 8.72917 6.51033C8.92361 6.28088 9.20833 6.16644 9.58333 6.16699C9.95833 6.16699 10.2394 6.27116 10.4267 6.47949C10.6139 6.68783 10.7078 6.91699 10.7083 7.16699C10.7083 7.4031 10.6389 7.61505 10.5 7.80283C10.3611 7.9906 10.1944 8.18144 10 8.37533C9.51389 8.79199 9.21861 9.12199 9.11417 9.36533C9.00972 9.60866 8.95778 10.0425 8.95833 10.667Z" fill="black" fill-opacity="0.5"/>
</svg>
