<svg width="25" height="25" viewBox="0 0 25 25" fill="none" xmlns="http://www.w3.org/2000/svg">
<path d="M1.0415 3.125H23.9582V21.875H1.0415V3.125ZM3.12484 5.20833V19.7917H21.8748V5.20833H3.12484ZM5.20817 10.4167C5.20817 9.86413 5.42766 9.33423 5.81836 8.94353C6.20907 8.55283 6.73897 8.33333 7.2915 8.33333H11.4582V10.4167H7.2915V14.5833H11.4582V16.6667H7.2915C6.73897 16.6667 6.20907 16.4472 5.81836 16.0565C5.42766 15.6658 5.20817 15.1359 5.20817 14.5833V10.4167ZM13.5415 10.4167C13.5415 9.86413 13.761 9.33423 14.1517 8.94353C14.5424 8.55283 15.0723 8.33333 15.6248 8.33333H19.7915V10.4167H15.6248V14.5833H19.7915V16.6667H15.6248C15.0723 16.6667 14.5424 16.4472 14.1517 16.0565C13.761 15.6658 13.5415 15.1359 13.5415 14.5833V10.4167Z" fill="#6849FF"/>
</svg>
