<svg width="25" height="25" viewBox="0 0 25 25" fill="none" xmlns="http://www.w3.org/2000/svg">
<path d="M21.0938 3.90625H3.90625C3.49185 3.90625 3.09442 4.07087 2.8014 4.3639C2.50837 4.65692 2.34375 5.05435 2.34375 5.46875V21.0938C2.34365 21.227 2.37764 21.358 2.44247 21.4744C2.50729 21.5908 2.60082 21.6887 2.71414 21.7588C2.82747 21.8289 2.95683 21.8688 3.08993 21.8748C3.22304 21.8808 3.35546 21.8526 3.47461 21.793L6.25 20.4043L9.02539 21.793C9.13393 21.8473 9.25363 21.8756 9.375 21.8756C9.49637 21.8756 9.61607 21.8473 9.72461 21.793L12.5 20.4043L15.2754 21.793C15.3839 21.8473 15.5036 21.8756 15.625 21.8756C15.7464 21.8756 15.8661 21.8473 15.9746 21.793L18.75 20.4043L21.5254 21.793C21.6445 21.8526 21.777 21.8808 21.9101 21.8748C22.0432 21.8688 22.1725 21.8289 22.2859 21.7588C22.3992 21.6887 22.4927 21.5908 22.5575 21.4744C22.6224 21.358 22.6563 21.227 22.6562 21.0938V5.46875C22.6562 5.05435 22.4916 4.65692 22.1986 4.3639C21.9056 4.07087 21.5082 3.90625 21.0938 3.90625ZM21.0938 19.8301L19.0996 18.832C18.9911 18.7777 18.8714 18.7494 18.75 18.7494C18.6286 18.7494 18.5089 18.7777 18.4004 18.832L15.625 20.2207L12.8496 18.832C12.7411 18.7777 12.6214 18.7494 12.5 18.7494C12.3786 18.7494 12.2589 18.7777 12.1504 18.832L9.375 20.2207L6.59961 18.832C6.49107 18.7777 6.37137 18.7494 6.25 18.7494C6.12863 18.7494 6.00893 18.7777 5.90039 18.832L3.90625 19.8301V5.46875H21.0938V19.8301ZM5.90039 16.3242C5.9922 16.3702 6.09217 16.3976 6.19459 16.4049C6.29701 16.4123 6.39987 16.3993 6.49728 16.3668C6.59469 16.3344 6.68474 16.283 6.76229 16.2157C6.83984 16.1484 6.90336 16.0665 6.94922 15.9746L7.51367 14.8438H11.2363L11.8008 15.9746C11.8467 16.0664 11.9102 16.1483 11.9878 16.2156C12.0654 16.2828 12.1554 16.3342 12.2528 16.3666C12.3502 16.3991 12.453 16.4121 12.5554 16.4048C12.6578 16.3975 12.7578 16.3701 12.8496 16.3242C12.9414 16.2783 13.0233 16.2148 13.0906 16.1372C13.1578 16.0596 13.2092 15.9696 13.2416 15.8722C13.2741 15.7748 13.2871 15.672 13.2798 15.5696C13.2725 15.4672 13.2451 15.3672 13.1992 15.2754L10.0742 9.02539C10.0094 8.89539 9.90967 8.78602 9.78615 8.70957C9.66264 8.63313 9.52026 8.59263 9.375 8.59263C9.22974 8.59263 9.08736 8.63313 8.96385 8.70957C8.84033 8.78602 8.74058 8.89539 8.67578 9.02539L5.55078 15.2754C5.5048 15.3672 5.47737 15.4672 5.47006 15.5696C5.46275 15.672 5.4757 15.7749 5.50817 15.8723C5.54064 15.9697 5.59199 16.0597 5.65929 16.1373C5.7266 16.2148 5.80852 16.2784 5.90039 16.3242ZM9.375 11.1221L10.4551 13.2813H8.29492L9.375 11.1221ZM13.2812 12.5C13.2812 12.2928 13.3636 12.0941 13.5101 11.9476C13.6566 11.8011 13.8553 11.7188 14.0625 11.7188H15.625V10.1563C15.625 9.94905 15.7073 9.75034 15.8538 9.60382C16.0003 9.45731 16.199 9.375 16.4062 9.375C16.6135 9.375 16.8122 9.45731 16.9587 9.60382C17.1052 9.75034 17.1875 9.94905 17.1875 10.1563V11.7188H18.75C18.9572 11.7188 19.1559 11.8011 19.3024 11.9476C19.4489 12.0941 19.5312 12.2928 19.5312 12.5C19.5312 12.7072 19.4489 12.9059 19.3024 13.0524C19.1559 13.1989 18.9572 13.2813 18.75 13.2813H17.1875V14.8438C17.1875 15.051 17.1052 15.2497 16.9587 15.3962C16.8122 15.5427 16.6135 15.625 16.4062 15.625C16.199 15.625 16.0003 15.5427 15.8538 15.3962C15.7073 15.2497 15.625 15.051 15.625 14.8438V13.2813H14.0625C13.8553 13.2813 13.6566 13.1989 13.5101 13.0524C13.3636 12.9059 13.2812 12.7072 13.2812 12.5Z" fill="white" fill-opacity="0.2"/>
</svg>
